<?xml version="1.0" encoding="UTF-8" standalone="no"?>
<!-- Created with Inkscape (http://www.inkscape.org/) -->

<svg
   xmlns:dc="http://purl.org/dc/elements/1.1/"
   xmlns:cc="http://creativecommons.org/ns#"
   xmlns:rdf="http://www.w3.org/1999/02/22-rdf-syntax-ns#"
   xmlns:svg="http://www.w3.org/2000/svg"
   xmlns="http://www.w3.org/2000/svg"
   xmlns:xlink="http://www.w3.org/1999/xlink"
   xmlns:sodipodi="http://sodipodi.sourceforge.net/DTD/sodipodi-0.dtd"
   xmlns:inkscape="http://www.inkscape.org/namespaces/inkscape"
   width="50"
   height="20"
   viewBox="0 0 13.229166 5.291667"
   version="1.1"
   id="svg8"
   inkscape:version="0.92.4 (5da689c313, 2019-01-14)"
   sodipodi:docname="logo1.svg">
  <defs
     id="defs2">
    <inkscape:perspective
       sodipodi:type="inkscape:persp3d"
       inkscape:vp_x="-14.337531 : 173.53914 : 1"
       inkscape:vp_y="80.289668 : -691.63896 : 0"
       inkscape:vp_z="66.614987 : 191.94448 : 1"
       inkscape:persp3d-origin="22.314938 : 215.6811 : 1"
       id="perspective2706" />
    <linearGradient
       inkscape:collect="always"
       id="linearGradient990">
      <stop
         style="stop-color:#9800ff;stop-opacity:1"
         offset="0"
         id="stop986" />
      <stop
         style="stop-color:#0000ff;stop-opacity:0;"
         offset="1"
         id="stop988" />
    </linearGradient>
    <linearGradient
       inkscape:collect="always"
       xlink:href="#linearGradient990"
       id="linearGradient994"
       x1="57.452381"
       y1="58.119019"
       x2="283.74673"
       y2="296.30502"
       gradientUnits="userSpaceOnUse" />
  </defs>
  <sodipodi:namedview
     id="base"
     pagecolor="#ffffff"
     bordercolor="#666666"
     borderopacity="1.0"
     inkscape:pageopacity="0.0"
     inkscape:pageshadow="2"
     inkscape:zoom="8.8365423"
     inkscape:cx="23.347263"
     inkscape:cy="3.7137679"
     inkscape:document-units="mm"
     inkscape:current-layer="layer1"
     showgrid="false"
     units="px"
     inkscape:window-width="1366"
     inkscape:window-height="705"
     inkscape:window-x="-8"
     inkscape:window-y="-8"
     inkscape:window-maximized="1" />
  <metadata
     id="metadata5">
    <rdf:RDF>
      <cc:Work
         rdf:about="">
        <dc:format>image/svg+xml</dc:format>
        <dc:type
           rdf:resource="http://purl.org/dc/dcmitype/StillImage" />
        <dc:title />
      </cc:Work>
    </rdf:RDF>
  </metadata>
  <g
     inkscape:label="Layer 1"
     inkscape:groupmode="layer"
     id="layer1"
     transform="translate(0,-291.70831)">
    <g
       id="g5757"
       transform="translate(-0.00130787,0.12888735)"
       style="fill:#ffffff">
      <path
         inkscape:connector-curvature="0"
         id="path5395"
         d="m 3.9586857,294.87998 c -0.073829,-5.6e-4 -0.147941,0.001 -0.2166899,0.004 -0.058801,0.004 -0.1089322,0.0149 -0.1562347,0.0269 -0.065205,0.0171 -0.1151349,0.0394 -0.1612178,0.0624 -0.042101,0.0238 -0.084018,0.0479 -0.1105138,0.0742 -0.016939,0.0194 -0.022843,0.0396 -0.025369,0.0599 -0.00356,0.0154 0.00187,0.0304 0.015402,0.0451 0.010252,0.0113 0.031348,0.0206 0.053957,0.0294 0.031761,0.0118 0.0737,0.0192 0.1152785,0.0263 0.044224,0.008 0.089816,0.0144 0.1354321,0.021 0.050042,0.008 0.1034296,0.0127 0.1568836,0.0171 0.048892,0.004 0.096633,0.009 0.1443138,0.0136 0.046838,0.006 0.092777,0.0109 0.138251,0.0171 0.038685,0.006 0.074309,0.0129 0.1092139,0.0205 0.029322,0.006 0.051338,0.0163 0.072808,0.0257 0.017895,0.006 0.022231,0.0158 0.028174,0.0246 0.011061,0.0116 0.00923,0.0234 0.0078,0.0354 -0.00435,0.0173 -0.016859,0.0337 -0.036621,0.0498 -0.016619,0.0139 -0.047782,0.0248 -0.075623,0.0362 -0.059529,0.0244 0.00646,-10e-4 -0.057423,0.0232 -0.063931,0.0264 -0.137018,0.0497 -0.2145229,0.0712 -0.055204,0.0131 -0.1053949,0.0291 -0.1644672,0.0402 -0.025023,-0.002 -0.049726,-0.006 -0.074108,-0.01 -0.06267,-0.01 -0.1230587,-0.0205 -0.1787706,-0.0341 -0.0549,-0.0143 -0.091268,-0.033 -0.1174461,-0.0543 -0.024862,-0.0225 -0.032612,-0.046 -0.033584,-0.0698 -0.00118,-0.0266 0.00877,-0.0529 0.03012,-0.0785 0.015075,-0.015 0.030803,-0.0305 0.055687,-0.0441 9.22e-4,-3.9e-4 0.00657,-0.002 0.011702,-0.006 l 0.140197,-0.002 c -0.014223,-0.006 -0.026712,-0.0141 -0.046806,-0.0187 -0.092734,-0.0276 -0.2773364,-0.0263 -0.3456206,0.009 -0.034547,0.0188 -0.060307,0.039 -0.078009,0.0604 -0.020954,0.0266 -0.032475,0.0535 -0.031205,0.081 7.581e-4,0.0248 0.00766,0.0497 0.032069,0.0733 0.027456,0.0232 0.062172,0.0428 0.1193946,0.0592 0.054057,0.0149 0.114987,0.0262 0.1783348,0.0359 0.056998,0.01 0.1133537,0.0188 0.1774703,0.0209 0.1235944,0.006 0.036027,0.002 0.3217848,10e-4 0.032047,-1.2e-4 0.062327,-0.004 0.089278,-0.01 0.061245,-0.0134 0.1141222,-0.0306 0.1722691,-0.0454 0.077654,-0.0222 0.1507562,-0.0461 0.216472,-0.0725 0.051096,-0.0195 0.107554,-0.0384 0.1401969,-0.0624 0.019306,-0.0169 0.033918,-0.0345 0.038137,-0.0527 0.00294,-0.0127 0.00709,-0.0255 -0.00434,-0.0381 -0.0071,-0.01 -0.010322,-0.02 -0.029252,-0.0284 -0.022788,-0.01 -0.046906,-0.02 -0.074758,-0.0285 -0.035066,-0.009 -0.072325,-0.0158 -0.1109476,-0.0222 -0.045479,-0.006 -0.092437,-0.0124 -0.139332,-0.0179 -0.047845,-0.006 -0.096295,-0.01 -0.1451829,-0.0145 -0.05282,-0.004 -0.1058496,-0.008 -0.1551497,-0.0154 -0.045276,-0.006 -0.092051,-0.0127 -0.1362983,-0.0205 -0.038897,-0.006 -0.07955,-0.0127 -0.1113786,-0.0231 -0.02114,-0.008 -0.042487,-0.0158 -0.053738,-0.026 -0.016778,-0.0131 -0.019518,-0.0274 -0.017098,-0.0416 0.00141,-0.0194 0.00407,-0.0386 0.021247,-0.0573 0.026193,-0.0254 0.064085,-0.0491 0.1066097,-0.0716 0.046853,-0.0221 0.098146,-0.0436 0.1649007,-0.0591 0.023906,-0.006 0.048495,-0.0109 0.074325,-0.0143 0.04433,0.006 0.087289,0.0134 0.1230811,0.0243 0.036158,0.0116 0.070571,0.0238 0.09361,0.039 v -1.5e-4 l 0.2738973,-0.006 c -0.031817,-0.0141 -0.064011,-0.0276 -0.1007599,-0.0402 -0.03968,-0.0137 -0.089225,-0.0225 -0.1406308,-0.0301 -0.067619,-0.008 -0.1413467,-0.0119 -0.2151743,-0.0126 z m 5.1212538,0.077 c -0.012149,0.021 -0.025101,0.0419 -0.040522,0.0627 -0.01332,0.0175 -0.027485,0.0352 -0.040959,0.0526 -0.015874,0.001 -0.031439,0.004 -0.04658,0.006 -0.025874,0.004 -0.048673,0.0112 -0.074974,0.0156 -0.026167,0.004 -0.05201,0.01 -0.078871,0.0133 -0.033971,0.006 -0.067919,0.0123 -0.1042274,0.0167 l -0.2704295,-0.0139 c -0.028662,10e-4 -0.057921,5.6e-4 -0.08646,0.002 -0.0274,10e-4 -0.053329,0.006 -0.079306,0.01 -0.0282,0.004 -0.057003,0.008 -0.083212,0.0136 -0.031475,0.006 -0.064747,0.012 -0.090788,0.0211 -0.020315,0.008 -0.039099,0.0156 -0.058938,0.0233 -0.00484,0.002 -0.00872,0.006 -0.013223,0.008 -0.00257,-0.002 -0.00467,-0.006 -0.0076,-0.008 -0.01755,-0.0154 -0.038359,-0.0299 -0.058938,-0.0447 l -0.2732465,0.004 c 0.024677,0.0141 0.045165,0.0289 0.063709,0.0442 0.015262,0.0139 0.025581,0.0284 0.034234,0.043 0.00895,0.0121 0.016513,0.0242 0.024464,0.0362 0.00888,0.0143 0.010921,0.0291 0.011912,0.0438 3.316e-4,0.0118 5.779e-4,0.0238 8.669e-4,0.0357 -0.00396,0.004 -0.00909,0.009 -0.012135,0.0126 -0.01385,0.0208 -0.026458,0.0418 -0.027942,0.0634 2.08e-5,3.8e-4 0.001,0.004 0.00128,0.006 0.00484,1.5e-4 0.010475,3.8e-4 0.017763,5.7e-4 -0.00176,0.004 -0.00311,0.006 -0.00735,0.01 -0.00579,-0.001 -0.00484,-0.001 -0.00887,-0.002 7.55e-4,0.006 5.038e-4,0.0109 0.00192,0.0109 0.2760009,0.006 0.2511576,0.0318 0.280612,-0.004 0.00558,-0.008 0.010921,-0.0161 0.018003,-0.024 0.00476,-0.01 0.010322,-0.0194 0.0078,-0.0291 -2.52e-4,-0.0131 -6.823e-4,-0.026 -6.508e-4,-0.0391 5.36e-5,-10e-4 -5.65e-5,-0.004 0,-0.006 0.015323,-0.0144 0.032813,-0.0285 0.051361,-0.0423 0.021486,-0.0182 0.042079,-0.0366 0.066096,-0.0543 0.012804,-0.0125 0.036964,-0.0224 0.055904,-0.0335 0.01523,-0.008 0.02674,-0.0175 0.046152,-0.0245 0.018905,-0.008 0.038996,-0.0151 0.058288,-0.0227 0.02879,-0.006 0.05803,-0.0126 0.088626,-0.0179 0.01795,-0.006 0.039483,-0.006 0.059807,-0.009 0.00851,-10e-4 0.016487,-0.002 0.024942,-0.004 0.025156,-0.004 0.050351,-0.006 0.077575,-0.006 0.01795,-10e-4 0.036506,-3.8e-4 0.054606,-5.7e-4 -0.00137,6e-5 -0.00155,1.3e-4 -0.00322,2.8e-4 -0.00593,2.7e-4 -0.02372,5.7e-4 -0.017761,5.7e-4 0.1610104,3.9e-4 0.1848229,3.9e-4 0.2290417,3.9e-4 l -0.2784454,0.0149 c 0.123519,-10e-4 0.2532025,0.009 0.370322,-0.004 -0.00247,0.006 -0.00491,0.01 -0.00757,0.0148 -0.010921,0.0179 -0.016088,0.0362 -0.018428,0.0546 -0.00128,0.017 -0.00211,0.0341 -0.00219,0.051 -0.00285,0.0143 0.00375,0.0283 0.0082,0.0425 0.00564,0.0133 0.012735,0.0264 0.02404,0.0393 0.00886,0.01 0.018774,0.0188 0.03207,0.0276 0.013376,0.008 0.029412,0.0156 0.04593,0.0231 0.015184,0.006 0.033468,0.0126 0.056129,0.0167 0.02809,0.004 0.05747,0.006 0.0871,0.008 0.08955,-0.0196 0.213207,0.006 0.315717,-0.001 0.01558,-10e-4 0.02963,-0.004 0.0442,-0.006 0.02353,-0.004 0.04112,-0.0109 0.06154,-0.0158 0.02077,-0.006 0.03402,-0.0139 0.05179,-0.0207 0.01296,-0.006 0.03294,-0.0118 0.0481,-0.0182 0.01805,-0.006 0.03198,-0.0149 0.05136,-0.0213 0.01606,-0.006 0.0247,-0.0154 0.03185,-0.0238 0.001,-10e-4 0.002,-0.002 0.003,-0.004 l -0.272596,-10e-4 c -10e-4,10e-4 -0.002,0.002 -0.003,0.004 -0.0072,0.006 -0.01558,0.0144 -0.03142,0.02 -0.01672,0.006 -0.03288,0.0146 -0.05157,0.0213 -0.01731,0.006 -0.03312,0.0118 -0.04746,0.0185 -0.01563,0.006 -0.03187,0.0137 -0.05266,0.0189 -0.0036,0.001 -0.0077,0.001 -0.01147,0.002 -0.0025,-10e-4 -0.0059,-10e-4 -0.0082,-0.002 -0.01837,-0.006 -0.03146,-0.0137 -0.04573,-0.0209 -0.01332,-0.009 -0.025,-0.0171 -0.03358,-0.0263 -0.01361,-0.012 -0.01795,-0.0247 -0.02537,-0.0373 -0.0036,-0.0139 -0.01053,-0.0276 -0.0089,-0.0416 -1.25e-4,-0.0169 -8.38e-4,-0.0337 0.0013,-0.0505 0.0025,-0.018 0.0072,-0.0357 0.01691,-0.0535 0.01045,-0.0213 0.01853,-0.0427 0.03207,-0.0638 5.44e-4,-5.6e-4 0.0012,-10e-4 0.0017,-0.002 0.01352,-0.001 0.02714,-0.002 0.04117,-0.004 0.02595,0.002 0.05174,0.006 0.07758,0.006 0.03774,0.002 0.07555,0.006 0.110945,0.0121 0.02393,0.004 0.04588,0.008 0.07064,0.011 0.0167,0.001 0.0084,5.6e-4 0.02404,0.001 l 0.287114,-0.0131 c -0.01588,-10e-4 -0.0076,-10e-4 -0.02446,-10e-4 -0.02931,-0.001 -0.04498,-0.004 -0.07107,-0.009 -0.03686,-0.006 -0.07425,-0.011 -0.114196,-0.0141 -0.04193,-0.002 -0.08141,-0.009 -0.123515,-0.0116 -0.01925,-10e-4 -0.03955,-0.002 -0.05938,-0.002 -0.07129,-9e-5 -0.136647,-3.9e-4 -0.201307,-3.9e-4 0.01085,-0.0141 0.02173,-0.0283 0.03164,-0.0426 0.01561,-0.0208 0.02993,-0.0418 0.05027,-0.0624 v -6e-5 z m -1.3103259,0.47613 c -4.982e-4,-0.004 -0.00128,-0.004 -0.00156,-0.006 -0.020156,-5.6e-4 -0.015876,10e-4 0.00156,0.006 z M 7.0666715,295.0757 c -0.052407,-3.8e-4 -0.1040544,0.001 -0.1551498,0.006 -0.070456,0.006 -0.1293772,0.0197 -0.1898192,0.033 -0.06296,0.0143 -0.1254467,0.0287 -0.1763884,0.0479 -0.036151,0.0134 -0.060211,0.0293 -0.075189,0.0465 -0.01441,0.0192 -0.027112,0.0388 -0.035318,0.0584 -0.00716,0.0179 -0.00798,0.0359 -0.00909,0.054 8.22e-4,0.016 0.00995,0.0318 0.024942,0.047 0.011856,0.0152 0.039929,0.0267 0.073028,0.0373 0.030389,0.01 0.067581,0.0154 0.1074801,0.019 0.130348,0.006 0.2651552,0.006 0.3961092,10e-4 0.053241,-0.002 0.1011267,-0.0109 0.1477812,-0.019 0.043115,-0.008 0.080274,-0.0192 0.1159299,-0.0305 0.010391,0.006 0.021779,0.0135 0.030986,0.0205 0.00898,0.006 0.023081,0.0136 0.040088,0.019 l 0.2721633,-0.009 c -0.018455,-0.002 -0.031247,-0.009 -0.041385,-0.0141 -0.016674,-0.0126 -0.035935,-0.0248 -0.055689,-0.0371 -0.019066,-0.0121 -0.039476,-0.024 -0.056774,-0.0362 -0.011703,-0.006 -0.021805,-0.0152 -0.030336,-0.0232 4.52e-4,-3.9e-4 0.00107,-10e-4 0.00152,-10e-4 0.012623,-0.0169 0.016354,-0.0342 0.019518,-0.0515 0.00206,-0.0121 0.00158,-0.0242 0.00173,-0.0362 -3.773e-4,-0.0126 -6.747e-4,-0.0253 -6.501e-4,-0.038 -0.0013,-0.0109 -0.00473,-0.0209 -0.022337,-0.0299 -0.2209526,-5.9e-4 -0.281919,-0.0251 -0.311167,0.028 -0.00628,0.0126 -0.00672,0.0255 -0.0067,0.0382 -5.952e-4,0.0141 0.00643,0.0282 0.014519,0.042 0.00686,0.0136 0.013878,0.0272 0.022524,0.0407 0.00191,0.002 0.00558,0.006 0.00847,0.009 -0.012665,0.0122 -0.027655,0.024 -0.052438,0.0342 -0.028403,0.0131 -0.060227,0.025 -0.09621,0.0358 -0.037212,0.0112 -0.075359,0.0221 -0.1202622,0.0297 -0.021832,0.004 -0.044098,0.006 -0.066957,0.01 -0.017338,-0.002 -0.033893,-0.006 -0.049188,-0.009 -0.031828,-0.009 -0.060655,-0.0187 -0.072374,-0.0328 -0.015478,-0.0141 -0.023906,-0.0289 -0.025554,-0.0438 9.22e-5,-0.0177 0.00137,-0.0352 0.00736,-0.0527 0.00801,-0.0192 0.019996,-0.0384 0.037056,-0.0568 0.016142,-0.0158 0.03778,-0.0303 0.07194,-0.0424 0.050693,-0.0182 0.1112781,-0.0322 0.1731361,-0.0457 0.060026,-0.0124 0.1206388,-0.0249 0.1909017,-0.0294 0.053759,-0.002 0.1079864,-0.004 0.1625182,-0.004 v -7e-5 z m 2.296481,0.006 c 6.2e-5,0 3.93e-4,0 4.33e-4,0 6.3e-4,0 0.0013,0 0.0019,0 0.01146,-1.4e-4 0.03702,3.8e-4 0.02774,3.8e-4 -0.0083,10e-6 -0.02651,6e-5 -0.03748,8e-5 0.0026,-1.4e-4 0.0062,-3.8e-4 0.0073,-3.8e-4 z m -3.43042,0.0348 c -0.056246,-1.4e-4 -0.1191603,0.002 -0.2160386,0.002 -0.039885,0.002 -0.075126,0.009 -0.1083463,0.0161 -0.051862,0.0118 -0.1024239,0.0248 -0.1397662,0.042 -0.020183,0.01 -0.037695,0.0208 -0.05352,0.0318 -0.030619,-0.01 -0.062684,-0.0183 -0.097725,-0.0259 -0.015107,-0.002 -0.029963,-0.006 -0.046371,-0.009 -0.1110564,-0.0149 -0.2661818,0.0118 -0.3594888,-0.006 -0.042268,10e-4 -0.0843,0.004 -0.1228621,0.01 -0.036822,0.006 -0.070511,0.0131 -0.098378,0.0232 -0.035233,0.0129 -0.064756,0.0268 -0.08321,0.0432 -0.020528,0.0179 -0.035007,0.0361 -0.037919,0.0554 -0.00346,0.0232 -0.00372,0.0463 0.00887,0.0693 0.014658,0.0222 0.036466,0.0438 0.065659,0.0643 0.030684,0.0197 0.067593,0.0383 0.1087801,0.0558 0.00338,0.001 0.029073,0.011 0.032721,0.0122 0.00969,0.004 0.020635,0.006 0.030336,0.01 0.00425,0.001 0.00612,0.004 0.012135,0.004 0.093874,0.002 0.1880565,10e-4 0.2821312,0.002 0.00297,-0.001 0.0066,-0.002 0.00888,-0.006 0.011772,-0.009 -3.837e-4,-0.0202 0.00367,-0.0294 2.936e-4,-0.0127 -3.56e-4,-0.0256 0.00195,-0.0384 H 4.938328 c -0.00992,-0.006 -0.020342,-0.0109 -0.029252,-0.0161 -0.029298,-0.0196 -0.050795,-0.0404 -0.065227,-0.0618 -0.014704,-0.0221 -0.012693,-0.0444 -0.00847,-0.0668 0.00516,-0.0182 0.018188,-0.0357 0.039438,-0.0525 0.017763,-0.0156 0.04875,-0.0282 0.083643,-0.0398 0.025023,-0.008 0.054947,-0.0129 0.085808,-0.0175 0.00219,3.8e-4 0.00335,3.8e-4 0.00605,5.7e-4 0.046694,0.009 0.088869,0.0202 0.1280634,0.0323 0.037858,0.0124 0.07143,0.0263 0.101845,0.0408 0.022496,0.0113 0.037576,0.0238 0.050488,0.0366 -0.00133,0.009 -9.476e-4,0.0177 0.00586,0.0266 0.2325385,10e-4 0.3119597,0.0276 0.2689134,-0.0248 -0.00155,-0.001 -0.00361,-0.002 -0.0052,-0.004 8.58e-4,-0.002 0.00128,-0.006 0.00237,-0.009 0.00639,-0.0179 0.025927,-0.035 0.045072,-0.0515 0.020474,-0.0202 0.049891,-0.0388 0.086241,-0.0562 0.037635,-0.0154 0.085602,-0.0272 0.1362983,-0.0371 0.037149,0.006 0.072371,0.0131 0.1042274,0.0221 0.043006,0.0121 0.070663,0.0282 0.097292,0.0447 0.026405,0.016 0.04232,0.0331 0.051138,0.051 0.0067,0.015 3.187e-4,0.0301 -0.00802,0.0449 -0.010322,0.0114 -0.021699,0.0226 -0.039219,0.0331 -0.01458,0.0109 -0.036214,0.0194 -0.058723,0.028 -0.023348,0.01 -0.051954,0.0173 -0.080175,0.0251 -0.031075,0.009 -0.06275,0.0167 -0.09296,0.0258 -0.030061,0.009 -0.058733,0.0187 -0.087328,0.0283 -0.026458,0.006 -0.050986,0.0156 -0.072155,0.0247 -0.012205,0.004 -0.025261,0.009 -0.036621,0.0139 l 0.2723783,0.006 c 0.011884,-0.004 0.023374,-0.009 0.035106,-0.0139 0.022204,-0.009 0.046397,-0.0162 0.070858,-0.0238 0.028313,-0.01 0.056777,-0.0188 0.086893,-0.0276 0.030718,-0.009 0.06291,-0.017 0.093826,-0.0257 0.028926,-0.008 0.056013,-0.017 0.08039,-0.0267 0.023081,-0.009 0.044235,-0.019 0.059373,-0.0299 0.016912,-0.0113 0.029735,-0.0236 0.038137,-0.036 0.00827,-0.0158 0.01385,-0.0321 0.00651,-0.048 -0.00933,-0.019 -0.025794,-0.0371 -0.052875,-0.0541 -0.027972,-0.0169 -0.052964,-0.0346 -0.097078,-0.0476 -0.039371,-0.0124 -0.083806,-0.0224 -0.133047,-0.0299 -0.06969,-0.01 -0.119276,-0.013 -0.1755188,-0.0131 z m -0.2140921,0.016 c 0.016142,8e-5 0.034343,0.001 0.052004,0.001 -0.1163539,1.4e-4 -0.1026806,-0.002 -0.052004,-0.001 z m 1.4659084,0.0171 c 0.00128,8e-5 0.00215,10e-4 0.00324,10e-4 -0.00356,-10e-6 -0.00709,-4e-5 -0.010629,-8e-5 0.00248,-3.7e-4 0.00464,-10e-4 0.00736,-10e-4 z m -2.2581272,0.0335 c 0.011647,1.2e-4 0.023906,10e-4 0.036622,10e-4 -0.1081552,4e-5 -0.088642,-10e-4 -0.036622,-10e-4 z m -1.462008,0.10986 c 0.00411,1.4e-4 0.016088,0.001 0.011912,0.001 -0.0084,6e-5 -0.012986,-1.1e-4 -0.021006,-8e-5 0.00308,-3.8e-4 0.00548,-10e-4 0.00909,-10e-4 z m 1.8756694,0.0299 c 0.00116,-2e-5 0.00232,2e-5 0.00346,0 -2.714e-4,5.7e-4 1.738e-4,0.002 -4.329e-4,0.002 -0.00276,-1.4e-4 -0.00586,-0.002 -0.00304,-0.002 z m 3.8570845,0.0788 c 0.0038,-2e-5 0.01651,8e-5 0.02079,7e-5 -0.06566,0.002 -0.129351,3.9e-4 -0.02079,-7e-5 z m -1.1545263,0.0327 c 0.00137,0 0.00201,8e-5 0.00349,8e-5 0.00119,0 -0.00184,0.001 -0.00257,0.001 -6.743e-4,-2.9e-4 -5.626e-4,-5.8e-4 -8.666e-4,-0.001 z m -3.2046291,0.0719 c 0.00434,0 0.00865,10e-6 0.013,0 -0.00151,0.002 -0.00396,0.004 -0.00605,0.004 -0.00379,-5.7e-4 -0.00463,-0.002 -0.00695,-0.004 z"
         style="fill:#ffffff;fill-opacity:1;stroke:#0dc8b5;stroke-width:0.11851294;stroke-miterlimit:4;stroke-dasharray:none;stroke-opacity:0" />
      <path
         sodipodi:nodetypes="ccccccccccccccccccccccccccccccccccccccccccccccccccccccccccccccccccccccccccccccccccsccccccccccccccccccccccccccccccccccccccccccccccccccccccccccccccccccccccccccccccccccccccccccccccccccccccccccccccccccccccccccccccccccccccccccc"
         inkscape:connector-curvature="0"
         id="path5584"
         d="m 2.2132653,292.98535 c -0.064893,-0.005 -0.076776,0.0121 -0.204324,0.089 -0.087827,0.052 -0.1745309,0.10495 -0.2620539,0.15729 -0.098098,0.0549 -0.2004477,0.10389 -0.3217295,0.13104 -0.072105,0.0174 -0.1436497,0.0329 -0.2185952,0.0434 -0.21688057,0.0305 -0.59037472,0.0162 0.4229184,0.0137 l -0.6064857,0.0669 c 0.4068669,0.0153 0.6378733,0.0173 0.9690801,-0.0678 -0.00598,0.0244 -0.014611,0.0487 -0.020111,0.0733 -0.019919,0.12102 -0.042424,0.24177 -0.054486,0.3634 -0.018102,0.1136 -0.027074,0.22766 -0.045406,0.34125 -0.00908,0.0936 -0.031003,0.18571 -0.057081,0.27751 -0.024098,0.071 -0.070918,0.13695 -0.1323249,0.19571 -0.08077,0.0628 -0.1811763,0.11056 -0.2892971,0.14742 -0.048471,0.0161 -0.099463,0.0273 -0.1511345,0.0375 -0.069381,-0.0231 -0.1198754,-0.0622 -0.1647576,-0.10708 -0.047539,-0.0537 -0.072148,-0.11284 -0.086919,-0.17446 -0.013942,-0.0713 0.00176,-0.14302 0.01815,-0.21334 0.011815,-0.061 0.034973,-0.11967 0.081082,-0.1722 0.051556,-0.0375 0.1042269,-0.077 0.1680002,-0.10435 0.011955,-0.003 0.023721,-0.008 0.035676,-0.0106 l -0.60583727,-0.0452 c -0.01208,0.006 -0.024238,0.0106 -0.036324,0.0162 -0.0635123,0.0358 -0.12654674,0.0742 -0.16994671,0.123 -0.0434595,0.0584 -0.0655076,0.12133 -0.07654,0.18668 -0.0173373,0.0748 -0.0329621,0.15121 -0.0220481,0.22689 0.0143471,0.0676 0.0431627,0.1324 0.0895133,0.19299 0.056274,0.0605 0.11581806,0.11997 0.21470221,0.14879 0.054641,0.0136 0.1123626,0.0279 0.1712428,0.0285 0.24881427,0.003 0.52475297,0.0155 0.78162107,-0.006 0.1216714,-0.0174 0.2428307,-0.0384 0.3522157,-0.081 0.1095718,-0.0446 0.2158525,-0.0963 0.2938378,-0.16724 0.061378,-0.0654 0.1113413,-0.13528 0.131677,-0.21287 0.025254,-0.093 0.041537,-0.18666 0.049947,-0.28114 0.016022,-0.11421 0.028218,-0.22885 0.044107,-0.34307 0.011258,-0.12042 0.02904,-0.24013 0.057081,-0.35932 0.023889,-0.0977 0.048756,-0.19533 0.085623,-0.29108 0.00485,-0.0121 0.025257,-0.0628 0.031785,-0.076 0.014204,-0.0287 0.033805,-0.0563 0.044107,-0.0858 0.045856,-0.0259 0.011411,-0.0269 -0.096649,-0.0212 -0.2412588,-0.0152 -0.3646346,-0.0349 -0.420324,-0.0393 z m 10.6105847,0.0425 -0.729081,0.10085 c -0.05235,0.0406 -0.09849,0.0819 -0.145297,0.123 -0.03953,0.0388 -0.07764,0.0777 -0.116106,0.11663 -0.04859,0.0508 -0.08469,0.10147 -0.129731,0.15232 -0.05178,0.0517 -0.100441,0.10389 -0.155675,0.15549 -0.05202,0.049 -0.09473,0.0977 -0.126485,0.14696 -0.03565,0.0473 -0.05554,0.0942 -0.09924,0.1415 -0.02451,0.0296 -0.0454,0.059 -0.06746,0.0886 -0.0069,-0.002 -0.01413,-0.003 -0.02205,-0.006 -0.02697,-0.008 -0.05829,-0.009 -0.07978,-0.0226 -0.07554,-0.019 -0.136452,-0.0508 -0.203028,-0.0769 -0.07764,-0.0328 -0.14277,-0.0722 -0.215998,-0.10753 -0.06282,-0.0317 0.503286,-1.40176 0.438606,-1.43256 -0.06035,-0.0302 -0.736762,1.27076 -0.790174,1.23725 -0.07481,-0.0649 -0.160386,-0.12633 -0.235458,-0.19119 -0.06736,-0.0614 -0.1408,-0.123 -0.1582707,-0.19435 l 0.3012707,-1.03997 c 0.03522,0.0745 -0.9063074,1.1878 -0.8351068,1.25407 0.071982,0.0649 0.1521149,0.12709 0.2237841,0.19209 0.04376,0.0393 0.10015,0.0745 0.155676,0.10935 0.06218,0.0334 0.129613,0.064 0.1945927,0.0959 0.07333,0.0359 0.143024,0.0739 0.216001,0.1098 0.06477,0.0288 0.130546,0.0572 0.199783,0.0831 0.04862,0.0174 0.10008,0.0322 0.151782,0.047 0.06028,0.0161 0.127811,0.0187 0.193946,0.0203 0.05443,0.003 0.109599,-0.002 0.16346,0.003 l 0.253621,-0.0203 c -7.56e-4,0.001 -0.0012,0.002 -0.002,0.003 -0.03834,0.0522 -0.06626,0.10464 -0.10378,0.15683 -0.03378,0.0528 -0.07255,0.10541 -0.118706,0.1582 -0.05719,0.0633 -0.08823,0.12619 -0.131674,0.18939 -0.04387,0.0639 -0.09532,0.128 -0.159567,0.19164 -0.07339,0.0704 -0.143267,0.1412 -0.216,0.21153 -0.06593,0.0628 -0.110036,0.12588 -0.168001,0.18893 -0.05615,0.0555 -0.123149,0.1101 -0.184215,0.16543 -0.05464,0.0487 -0.110621,0.0975 -0.1686477,0.14605 -0.0637,0.0444 -1.4281939,0.95822 -1.4731219,1.00391 -0.03988,0.0347 1.2453059,-0.79752 1.1922569,-0.76397 -0.051864,0.0237 -0.064321,0.0516 -0.1122168,0.0755 0.1649337,-0.0218 -0.5564334,0.95264 -0.3325649,0.84349 0.1032983,-0.0504 0.2428802,0.16348 1.0590504,-0.9439 0.03549,-0.0262 0.06714,-0.0523 0.11027,-0.0778 0.04276,-0.0353 0.07953,-0.0713 0.115459,-0.10707 0.04338,-0.045 0.09842,-0.089 0.155027,-0.13332 0.05655,-0.0487 0.112214,-0.0972 0.165406,-0.14605 0.0623,-0.0557 0.12631,-0.11163 0.180973,-0.1677 0.05279,-0.0625 0.01027,1.01283 0.07493,0.95068 0.07074,-0.0704 0.229739,-1.27824 0.30258,-1.34842 0.0654,-0.0651 0.123188,-0.13043 0.164758,-0.1957 0.03932,-0.0625 0.879113,1.07225 0.940755,1.00964 0.04776,-0.0534 -0.719083,-1.3043 -0.687783,-1.35768 0.03727,-0.0523 0.06641,-0.10405 0.105726,-0.15639 0.03598,-0.0506 0.07579,-0.10131 0.12065,-0.15187 0.03828,-0.0476 0.05954,-0.0953 0.09471,-0.14287 0.03292,-0.0479 0.07966,-0.0956 0.127783,-0.14332 0.05311,-0.052 0.105224,-0.10465 0.15308,-0.15684 0.04312,-0.0508 0.08411,-0.10162 0.138163,-0.15233 0.0402,-0.0382 0.07222,-0.0766 0.113515,-0.11481 0.04634,-0.0406 0.09199,-0.0819 0.159568,-0.12027 z m -6.6097234,0.19074 c -0.1220253,10e-4 -0.2431114,0.006 -0.359351,0.008 -0.038559,2.7e-4 -0.080129,0.008 -0.1167571,0.0136 -0.07441,0.0177 -0.1393645,0.0456 -0.1945938,0.0817 -0.045502,0.0372 -0.084479,0.0772 -0.1076755,0.12209 -0.02794,0.0573 -0.050007,0.11572 -0.066162,0.17492 -0.015495,0.0564 -0.012484,0.11481 0.00195,0.1713 0.00878,0.0563 0.052931,0.0987 0.1102698,0.13969 0.06207,0.0414 0.1348454,0.0743 0.2127556,0.10207 0.072616,0.0243 0.1484969,0.045 0.2237844,0.0655 0.074095,0.0202 0.1390101,0.0511 0.1971883,0.0863 0.053034,0.0325 0.092562,0.0702 0.1258375,0.11163 0.029748,0.0353 0.029482,0.0708 0.022693,0.10935 -0.015998,0.0463 -0.058297,0.0861 -0.097296,0.12573 -0.046602,0.0446 -0.100901,0.0851 -0.1692963,0.11617 -0.00711,0.003 -0.015472,0.003 -0.022693,0.005 -0.035126,-0.0106 -0.069909,-0.0212 -0.1044332,-0.0322 -0.085684,-0.0262 -0.163562,-0.0613 -0.247135,-0.0899 -0.044552,-0.0159 -0.088191,-0.0329 -0.1342713,-0.047 l -0.6071346,0.047 c 0.049108,0.0106 0.094791,0.0237 0.1368657,0.0429 0.085623,0.0271 0.1651833,0.0602 0.2490809,0.0895 0.085794,0.0296 0.1747413,0.0573 0.2659459,0.0792 0.030075,0.005 0.059259,0.0136 0.090161,0.0152 0.2471977,0.003 0.5221707,0.0212 0.7744858,-0.0121 0.0727,-0.0136 0.1452998,-0.0312 0.204972,-0.0623 0.067011,-0.0376 0.1252231,-0.0808 0.1718909,-0.12968 0.041987,-0.0449 0.087093,-0.0904 0.1011894,-0.14287 0.00758,-0.0455 0.00695,-0.0887 -0.024649,-0.13103 -0.033586,-0.0455 -0.073764,-0.0881 -0.1290825,-0.12437 -0.057248,-0.0402 -0.1238019,-0.0748 -0.1984868,-0.10086 -0.073709,-0.0223 -0.1493123,-0.0411 -0.2237843,-0.0623 -0.075331,-0.0259 -0.15118,-0.0511 -0.2121077,-0.0904 -0.053986,-0.0319 -0.097864,-0.0681 -0.1070275,-0.11618 -0.013446,-0.0519 -0.020757,-0.10571 -0.00584,-0.15774 0.017911,-0.0569 0.038542,-0.11375 0.070703,-0.16814 0.025845,-0.0382 0.059709,-0.0746 0.1063797,-0.10389 0.00741,-0.005 0.01626,-0.006 0.023999,-0.0106 0.047556,0.0288 0.093227,0.056 0.1297305,0.0931 0.051353,0.0437 0.1020561,0.088 0.1472439,0.13422 L 7.0690432,293.55 c -0.052318,-0.046 -0.1036835,-0.0924 -0.1556755,-0.13832 -0.045042,-0.0402 -0.090933,-0.079 -0.1472438,-0.11299 -0.051803,-0.0343 -0.1177353,-0.0535 -0.1887567,-0.0651 -0.1184125,-0.0137 -0.2412178,-0.0159 -0.3632428,-0.0152 z m 1.8369715,10e-4 -0.6616214,4.6e-4 c 0.012554,0.0836 0.014036,0.16791 0.015568,0.25176 0.00126,0.11876 0.00176,0.23704 -6.487e-4,0.35572 5.562e-4,0.0966 -0.00318,0.19313 -0.00518,0.28972 -8.434e-4,0.072 -0.00261,0.14363 -0.00323,0.21559 3.16e-4,0.0599 -2.72e-4,0.12042 -0.00129,0.18035 -0.00251,0.0502 0.003,0.0996 -0.00454,0.14954 -0.00754,0.0332 -0.00417,0.0171 -0.012317,0.0497 l 0.6531887,0.003 c 0.00704,-0.0332 0.00334,-0.0159 0.01038,-0.0502 0.00804,-0.0508 0.00417,-0.10223 0.00454,-0.15323 -0.00108,-0.0599 -0.00273,-0.11951 -0.00261,-0.17943 -7.542e-4,-0.072 -0.00171,-0.14409 -0.00261,-0.21605 -7.418e-4,-0.0375 -9.418e-4,-0.0748 -0.00195,-0.11208 l 0.5643239,0.0317 c 0.02656,-0.005 0.05483,-0.008 0.08173,-0.0121 0.024249,0.0158 0.04396,0.0338 0.05773,0.0538 0.022957,0.046 0.023076,0.0942 0.023999,0.14151 -0.00251,0.0543 -7.262e-4,0.10783 0.00974,0.16181 0.00978,0.0466 0.016285,0.0933 0.019465,0.14014 0.00251,0.0491 0.00261,0.0983 0.00261,0.14726 -4.907e-4,0.0329 3.04e-5,0.0168 -6.486e-4,0.0488 h 0.6538374 c -5.812e-4,-0.032 -8.604e-4,-0.0158 -0.00129,-0.0488 -7.99e-5,-0.0494 0.00106,-0.0989 -0.00129,-0.14832 -0.00351,-0.0478 -0.010157,-0.0951 -0.022693,-0.14242 -0.010422,-0.0528 -0.00908,-0.10601 -0.00908,-0.15909 -0.00103,-0.051 0.00224,-0.10268 -0.01882,-0.15278 -0.02435,-0.0409 -0.060841,-0.082 -0.127784,-0.10798 -0.031556,-0.0136 -0.079561,-0.0352 -0.1232431,-0.0358 -0.3075856,-0.003 -0.5397207,-0.0232 -0.8088644,0.0121 -0.101032,0.0136 -0.2016672,0.029 -0.2996752,0.0484 -0.00114,-0.0516 -0.00361,-0.10298 -0.00323,-0.15458 -0.00251,-0.11875 -0.00201,-0.23794 -6.486e-4,-0.35662 0.00163,-0.0839 0.00375,-0.16768 0.016213,-0.25131 z m -3.8614021,0.0751 -0.5863777,0.0646 c 0.086259,-10e-4 0.1717952,-1.8e-4 0.2575129,0.008 0.1352969,0.0136 0.2622622,0.0372 0.3671351,0.10222 0.1017802,0.0651 0.1605704,0.13362 0.1958922,0.22735 0.029875,0.10298 0.04306,0.20943 0.016858,0.31369 -0.031193,0.10737 -0.084145,0.20998 -0.1751358,0.30056 -0.098619,0.0987 -0.2124424,0.18736 -0.3489727,0.2617 -0.067088,0.035 -0.1401607,0.0616 -0.2166486,0.0831 -0.084972,-0.0318 -0.1503621,-0.0872 -0.2095132,-0.13831 -0.079109,-0.079 -0.1475474,-0.16313 -0.1686482,-0.2599 -0.016954,-0.10753 0.00447,-0.21189 0.071351,-0.31051 0.071213,-0.10951 0.1633971,-0.21115 0.2737296,-0.30373 0.087356,-0.0742 0.1793278,-0.14757 0.2912429,-0.20431 l -0.6129661,-0.0383 c -0.097579,0.0669 -0.1869825,0.13938 -0.2698379,0.21515 -0.1123333,0.0957 -0.2033004,0.20109 -0.2756753,0.31367 -0.067919,0.10556 -0.091039,0.21781 -0.07654,0.33221 0.01846,0.10389 0.089777,0.19392 0.1699467,0.28024 0.070623,0.0751 0.1598364,0.13832 0.2730808,0.18124 0.082413,0.0234 0.1712213,0.0391 0.2607567,0.0388 0.6610538,-10e-4 0.4495278,0.0297 0.7277828,-0.0158 0.1416291,-0.0275 0.2466915,-0.0704 0.3580539,-0.13605 0.082129,-0.0541 0.167039,-0.10753 0.2374052,-0.1695 0.021187,-0.0186 0.086479,-0.0836 0.1070276,-0.10389 0.093033,-0.0963 0.149384,-0.20493 0.1803249,-0.3182 0.024138,-0.10935 0.010088,-0.22043 -0.014921,-0.32906 -0.033517,-0.0987 -0.095793,-0.17981 -0.195242,-0.25311 -0.1084069,-0.0745 -0.2310395,-0.10616 -0.3775131,-0.12649 -0.086137,-0.0106 -0.1729836,-0.0136 -0.2601081,-0.0152 z m -0.1705949,1.40252 c 0.022813,1.8e-4 -0.045325,0.002 -0.068109,9.1e-4 -0.00139,-5e-5 -0.00371,-4e-4 -0.00518,-4.6e-4 0.033937,1.1e-4 0.035678,-7.6e-4 0.073298,-4.5e-4 z"
         style="fill:#ffffff;fill-opacity:1;stroke:#0dc8b5;stroke-width:0.50922734;stroke-miterlimit:4;stroke-dasharray:none;stroke-opacity:0" />
      <path
         transform="matrix(0.44236303,0,0,0.37715804,3.0976058,183.23118)"
         inkscape:transform-center-y="-0.039668133"
         inkscape:transform-center-x="-0.0056373231"
         d="m -0.50901302,298.04796 -0.70928458,-0.40383 -0.7347719,0.35535 0.1648867,-0.79936 -0.5650177,-0.589 0.8111901,-0.0902 0.3855717,-0.71937 0.33645645,0.74361 0.80331414,0.14441 -0.60324863,0.54977 z"
         inkscape:randomized="0"
         inkscape:rounded="0"
         inkscape:flatsided="false"
         sodipodi:arg2="1.6043556"
         sodipodi:arg1="0.97603707"
         sodipodi:r2="0.61453986"
         sodipodi:r1="1.2290798"
         sodipodi:cy="297.02994"
         sodipodi:cx="-1.197678"
         sodipodi:sides="5"
         id="path5752"
         style="fill:#ffffff;fill-opacity:1;stroke:#0dc8b5;stroke-width:0.486;stroke-miterlimit:4;stroke-dasharray:none;stroke-opacity:0"
         sodipodi:type="star" />
    </g>
  </g>
</svg>
